<svg xmlns="http://www.w3.org/2000/svg" viewBox="0 0 512 512"><path d="M512 99.04V73.6c0-15.84-12.96-28.8-28.8-28.8H28.8C12.96 44.8 0 57.76 0 73.6v25.44h512z"/><g fill="#fff"><path d="M147.04 44.8H28.8C12.96 44.8 0 57.76 0 73.6v25.44h115.84l31.2-54.24z" opacity=".25"/><path d="M8 107.04h496v352H8z"/></g><path d="M496 115.2v336H16v-336h480m16-16H0v368h512v-368z" fill="#efefef"/><path d="M488 123.2v320H24v-320h464m4-4H20v328h472v-328z" fill="#e0e0e0"/><circle cx="40.48" cy="72" r="8.16" fill="red"/><circle cx="65.12" cy="72" r="8.16" fill="#22acdd"/><g fill="#fff"><circle cx="89.6" cy="72" r="8.16"/><path d="M428.32 86.4H170.88c-7.84 0-14.4-6.4-14.4-14.4 0-7.84 6.4-14.4 14.4-14.4h257.44c7.84 0 14.4 6.4 14.4 14.4-.16 7.84-6.56 14.4-14.4 14.4z"/></g><path d="M180.64 65.44l1.92 7.52c.48 1.6.8 3.2 1.12 4.8h.16c.32-1.44.8-3.04 1.28-4.64l2.4-7.52h2.24l2.24 7.52c.48 1.76.96 3.36 1.28 4.8h.16c.32-1.44.64-3.04 1.12-4.8l2.08-7.52h2.72l-4.8 14.88h-2.4l-2.24-7.04c-.48-1.6-.96-3.2-1.28-4.96-.32 1.76-.8 3.36-1.28 4.96l-2.4 7.04h-2.4l-4.48-14.88h2.56v-.16zM203.52 65.44l1.92 7.52c.48 1.6.8 3.2 1.12 4.8h.16c.32-1.44.8-3.04 1.28-4.64l2.4-7.52h2.24l2.24 7.52c.48 1.76.96 3.36 1.28 4.8h.16c.32-1.44.64-3.04 1.12-4.8l2.08-7.52h2.72l-4.8 14.88h-2.4l-2.24-7.36c-.48-1.6-.96-3.2-1.28-4.96-.32 1.76-.8 3.36-1.28 4.96l-2.4 7.04h-2.4l-4.48-14.88h2.56v.16zM226.56 65.44l1.92 7.52c.48 1.6.8 3.2 1.12 4.8h.16c.32-1.44.8-3.04 1.28-4.64l2.4-7.52h2.24l2.24 7.52c.48 1.76.96 3.36 1.28 4.8h.16c.32-1.44.64-3.04 1.12-4.8l2.08-7.52h2.72l-4.8 14.88h-2.4l-2.24-7.04c-.48-1.6-.96-3.2-1.28-4.96-.32 1.76-.8 3.36-1.28 4.96l-2.4 7.04h-2.4L224 65.6h2.56v-.16zM246.24 78.72c0-1.12.8-1.92 1.92-1.92s1.76.8 1.76 1.92c0 1.12-.64 1.92-1.92 1.92-1.12 0-1.76-.8-1.76-1.92z"/><g fill="#fff"><path d="M461.28 70.4h23.04v4h-23.04z"/><path d="M474.56 84.32l-2.88-2.88 9.12-9.12-9.12-9.12 2.88-2.72 12 11.84z"/></g><path fill="#c9c9c9" d="M429.76 67.36l-7.52 9.92-7.68-9.92z"/><path fill="#22acdd" d="M148.96 342.56h214.08v11.2H148.96z"/><g fill="#f33052"><path d="M222.56 304.16c-4.64 2.24-13.76 4.48-25.6 4.48-27.36 0-48-16.96-48-48 0-29.76 20.64-49.76 50.72-49.76 12.16 0 19.68 2.56 23.04 4.16l-3.04 9.92c-4.8-2.24-11.52-4-19.52-4-22.72 0-37.92 14.24-37.92 39.04 0 23.2 13.76 38.08 37.28 38.08 7.68 0 15.36-1.6 20.48-4l2.56 10.08zM236.48 292.32c5.6 3.36 13.76 6.24 22.4 6.24 12.8 0 20.32-6.56 20.32-16.16 0-8.8-5.12-13.92-18.24-18.88-15.84-5.44-25.6-13.44-25.6-26.88 0-14.72 12.48-25.76 31.36-25.76 9.92 0 17.12 2.24 21.44 4.64l-3.36 10.08c-3.2-1.76-9.6-4.48-18.4-4.48-13.28 0-18.24 7.68-18.24 14.24 0 8.8 5.92 13.28 19.36 18.24 16.48 6.24 24.8 13.92 24.8 27.84 0 14.56-11.04 27.36-33.92 27.36-9.28 0-19.52-2.72-24.8-6.08l2.88-10.4zM307.52 292.32c5.6 3.36 13.76 6.24 22.4 6.24 12.8 0 20.32-6.56 20.32-16.16 0-8.8-5.12-13.92-18.24-18.88-15.84-5.44-25.6-13.44-25.6-26.88 0-14.72 12.48-25.76 31.36-25.76 9.92 0 17.12 2.24 21.44 4.64l-3.52 9.92c-3.2-1.76-9.6-4.48-18.4-4.48-13.28 0-18.24 7.68-18.24 14.24 0 8.8 5.92 13.28 19.36 18.24 16.48 6.24 24.8 13.92 24.8 27.84 0 14.56-11.04 27.36-33.92 27.36-9.28 0-19.52-2.72-24.8-6.08l3.04-10.24z"/></g></svg>