<?xml version="1.0" encoding="iso-8859-1"?>
<!-- Generator: Adobe Illustrator 19.0.0, SVG Export Plug-In . SVG Version: 6.00 Build 0)  -->
<svg version="1.1" id="Layer_1" xmlns="http://www.w3.org/2000/svg" xmlns:xlink="http://www.w3.org/1999/xlink" x="0px" y="0px"
	 viewBox="0 0 512 512" style="enable-background:new 0 0 512 512;" xml:space="preserve">
<path d="M512,99.04V73.6c0-15.84-12.96-28.8-28.8-28.8H115.04H28.8C12.96,44.8,0,57.76,0,73.6v25.44H512z"/>
<g>
	<path style="opacity:0.25;fill:#FFFFFF;enable-background:new    ;" d="M147.04,44.8h-32H28.8C12.96,44.8,0,57.76,0,73.6v25.44
		h115.84L147.04,44.8z"/>
	<rect x="8" y="107.04" style="fill:#FFFFFF;" width="496" height="352"/>
</g>
<path style="fill:#EFEFEF;" d="M496,115.2v336H16v-336L496,115.2 M512,99.2H0v368h512V99.2L512,99.2z"/>
<path style="fill:#E0E0E0;" d="M488,123.2v320H24v-320L488,123.2 M492,119.2H20v328h472V119.2L492,119.2z"/>
<circle style="fill:#FF0000;" cx="40.48" cy="72" r="8.16"/>
<circle style="fill:#22ACDD;" cx="65.12" cy="72" r="8.16"/>
<g>
	<circle style="fill:#FFFFFF;" cx="89.6" cy="72" r="8.16"/>
	<path style="fill:#FFFFFF;" d="M428.32,86.4H170.88c-7.84,0-14.4-6.4-14.4-14.4l0,0c0-7.84,6.4-14.4,14.4-14.4h257.44
		c7.84,0,14.4,6.4,14.4,14.4l0,0C442.56,79.84,436.16,86.4,428.32,86.4z"/>
</g>
<path d="M180.64,65.44l1.92,7.52c0.48,1.6,0.8,3.2,1.12,4.8h0.16c0.32-1.44,0.8-3.04,1.28-4.64l2.4-7.52h2.24l2.24,7.52
	c0.48,1.76,0.96,3.36,1.28,4.8h0.16c0.32-1.44,0.64-3.04,1.12-4.8l2.08-7.52h2.72l-4.8,14.88h-2.4l-2.24-7.04
	c-0.48-1.6-0.96-3.2-1.28-4.96l0,0c-0.32,1.76-0.8,3.36-1.28,4.96l-2.4,7.04h-2.4l-4.48-14.88h2.56V65.44z"/>
<path d="M203.52,65.44l1.92,7.52c0.48,1.6,0.8,3.2,1.12,4.8h0.16c0.32-1.44,0.8-3.04,1.28-4.64l2.4-7.52h2.24l2.24,7.52
	c0.48,1.76,0.96,3.36,1.28,4.8h0.16c0.32-1.44,0.64-3.04,1.12-4.8l2.08-7.52h2.72l-4.8,14.88h-2.4l-2.24-7.36
	c-0.48-1.6-0.96-3.2-1.28-4.96l0,0c-0.32,1.76-0.8,3.36-1.28,4.96l-2.4,7.04h-2.4l-4.48-14.88h2.56V65.44z"/>
<path d="M226.56,65.44l1.92,7.52c0.48,1.6,0.8,3.2,1.12,4.8h0.16c0.32-1.44,0.8-3.04,1.28-4.64l2.4-7.52h2.24l2.24,7.52
	c0.48,1.76,0.96,3.36,1.28,4.8h0.16c0.32-1.44,0.64-3.04,1.12-4.8l2.08-7.52h2.72l-4.8,14.88h-2.4l-2.24-7.04
	c-0.48-1.6-0.96-3.2-1.28-4.96l0,0c-0.32,1.76-0.8,3.36-1.28,4.96l-2.4,7.04h-2.4L224,65.6h2.56V65.44z"/>
<path d="M246.24,78.72c0-1.12,0.8-1.92,1.92-1.92s1.76,0.8,1.76,1.92c0,1.12-0.64,1.92-1.92,1.92
	C246.88,80.64,246.24,79.84,246.24,78.72z"/>
<g>
	<rect x="461.28" y="70.4" style="fill:#FFFFFF;" width="23.04" height="4"/>
	<polygon style="fill:#FFFFFF;" points="474.56,84.32 471.68,81.44 480.8,72.32 471.68,63.2 474.56,60.48 486.56,72.32 	"/>
</g>
<polygon style="fill:#C9C9C9;" points="429.76,67.36 422.24,77.28 414.56,67.36 "/>
<rect x="148.96" y="342.56" style="fill:#22ACDD;" width="214.08" height="11.2"/>
<g>
	<path style="fill:#F33052;" d="M222.56,304.16c-4.64,2.24-13.76,4.48-25.6,4.48c-27.36,0-48-16.96-48-48
		c0-29.76,20.64-49.76,50.72-49.76c12.16,0,19.68,2.56,23.04,4.16l-3.04,9.92c-4.8-2.24-11.52-4-19.52-4
		c-22.72,0-37.92,14.24-37.92,39.04c0,23.2,13.76,38.08,37.28,38.08c7.68,0,15.36-1.6,20.48-4L222.56,304.16z"/>
	<path style="fill:#F33052;" d="M236.48,292.32c5.6,3.36,13.76,6.24,22.4,6.24c12.8,0,20.32-6.56,20.32-16.16
		c0-8.8-5.12-13.92-18.24-18.88c-15.84-5.44-25.6-13.44-25.6-26.88c0-14.72,12.48-25.76,31.36-25.76c9.92,0,17.12,2.24,21.44,4.64
		l-3.36,10.08c-3.2-1.76-9.6-4.48-18.4-4.48c-13.28,0-18.24,7.68-18.24,14.24c0,8.8,5.92,13.28,19.36,18.24
		c16.48,6.24,24.8,13.92,24.8,27.84c0,14.56-11.04,27.36-33.92,27.36c-9.28,0-19.52-2.72-24.8-6.08L236.48,292.32z"/>
	<path style="fill:#F33052;" d="M307.52,292.32c5.6,3.36,13.76,6.24,22.4,6.24c12.8,0,20.32-6.56,20.32-16.16
		c0-8.8-5.12-13.92-18.24-18.88c-15.84-5.44-25.6-13.44-25.6-26.88c0-14.72,12.48-25.76,31.36-25.76c9.92,0,17.12,2.24,21.44,4.64
		l-3.52,9.92c-3.2-1.76-9.6-4.48-18.4-4.48c-13.28,0-18.24,7.68-18.24,14.24c0,8.8,5.92,13.28,19.36,18.24
		c16.48,6.24,24.8,13.92,24.8,27.84c0,14.56-11.04,27.36-33.92,27.36c-9.28,0-19.52-2.72-24.8-6.08L307.52,292.32z"/>
</g>
<g>
</g>
<g>
</g>
<g>
</g>
<g>
</g>
<g>
</g>
<g>
</g>
<g>
</g>
<g>
</g>
<g>
</g>
<g>
</g>
<g>
</g>
<g>
</g>
<g>
</g>
<g>
</g>
<g>
</g>
</svg>
