<svg width="256" height="256" xmlns="http://www.w3.org/2000/svg" preserveAspectRatio="xMidYMid">

 <g>
  <title>background</title>
  <rect fill="none" id="canvas_background" height="402" width="582" y="-1" x="-1"/>
 </g>
 <g>
  <title>Layer 1</title>
  <g id="svg_1">
   <path id="svg_2" fill="#00bac7" d="m0,0l256,0l0,256l-256,0l0,-256z"/>
   <path id="svg_3" fill="#ffffff" d="m67.31175,212.93229l19.5909,-11.85605c3.77946,6.70111 7.21758,12.3709 15.46444,12.3709c7.90511,0 12.88899,-3.09232 12.88899,-15.12026l0,-81.79809l24.05749,0l0,82.13821c0,24.91733 -14.60581,36.25894 -35.91517,36.25894c-19.2451,0 -30.41646,-9.96734 -36.08706,-21.99568"/>
   <path id="svg_4" fill="#ffffff" d="m152.38095,210.35441l19.58847,-11.34161c5.15657,8.42118 11.85849,14.60703 23.71495,14.60703c9.96815,0 16.32467,-4.98387 16.32467,-11.85767c0,-8.24848 -6.52962,-11.17013 -17.52787,-15.98009l-6.01275,-2.57951c-17.35721,-7.38783 -28.87111,-16.66722 -28.87111,-36.25772c0,-18.04353 13.7472,-31.79155 35.22844,-31.79155c15.29417,0 26.29201,5.32765 34.19591,19.24714l-18.73107,12.02835c-4.12444,-7.38865 -8.59103,-10.30949 -15.46443,-10.30949c-7.04569,0 -11.51391,4.46781 -11.51391,10.30949c0,7.21757 4.46822,10.13963 14.77771,14.60784l6.01396,2.57747c20.44953,8.76455 31.96343,17.69936 31.96343,37.8043c0,21.65353 -17.01221,33.50959 -39.86692,33.50959c-22.33945,0 -36.7746,-10.65367 -43.81907,-24.57357"/>
  </g>
  <g stroke="null" id="svg_35">
   <g stroke="null" transform="matrix(0.6380167879696883,0,0,0.6380112069118001,-1665.911466169558,-1661.293795895707) " id="svg_18">
    <path fill="#005461" stroke="null" id="svg_19" d="m2811.065602,2603.862933c-110.275,0 -199.988,89.72 -199.988,200c0,54.818 22.178,104.542 58.02,140.705c0.199,0.229 0.359,0.484 0.576,0.701c0.219,0.222 0.475,0.375 0.705,0.576c36.156,35.838 85.877,58.018 140.687,58.018c110.289,0 200.008,-89.72 200.008,-200s-89.719,-200 -200.008,-200zm0,26.231c43.201,0 82.74,15.882 113.172,42.064l-244.869,244.87c-26.178,-30.433 -42.061,-69.968 -42.061,-113.165c0,-95.816 77.95,-173.769 173.758,-173.769zm0,347.539c-43.193,0 -82.725,-15.879 -113.15,-42.059l244.867,-244.873c26.18,30.432 42.061,69.963 42.061,113.162c0,95.816 -77.956,173.77 -173.778,173.77z"/>
   </g>
   <g stroke="null" transform="matrix(0.6380167879696883,0,0,0.6380112069118001,-1665.911466169558,-1661.293795895707) " id="svg_20"/>
   <g stroke="null" transform="matrix(0.6380167879696883,0,0,0.6380112069118001,-1665.911466169558,-1661.293795895707) " id="svg_21"/>
   <g stroke="null" transform="matrix(0.6380167879696883,0,0,0.6380112069118001,-1665.911466169558,-1661.293795895707) " id="svg_22"/>
   <g stroke="null" transform="matrix(0.6380167879696883,0,0,0.6380112069118001,-1665.911466169558,-1661.293795895707) " id="svg_23"/>
   <g stroke="null" transform="matrix(0.6380167879696883,0,0,0.6380112069118001,-1665.911466169558,-1661.293795895707) " id="svg_24"/>
   <g stroke="null" transform="matrix(0.6380167879696883,0,0,0.6380112069118001,-1665.911466169558,-1661.293795895707) " id="svg_25"/>
   <g stroke="null" transform="matrix(0.6380167879696883,0,0,0.6380112069118001,-1665.911466169558,-1661.293795895707) " id="svg_26"/>
   <g stroke="null" transform="matrix(0.6380167879696883,0,0,0.6380112069118001,-1665.911466169558,-1661.293795895707) " id="svg_27"/>
   <g stroke="null" transform="matrix(0.6380167879696883,0,0,0.6380112069118001,-1665.911466169558,-1661.293795895707) " id="svg_28"/>
   <g stroke="null" transform="matrix(0.6380167879696883,0,0,0.6380112069118001,-1665.911466169558,-1661.293795895707) " id="svg_29"/>
   <g stroke="null" transform="matrix(0.6380167879696883,0,0,0.6380112069118001,-1665.911466169558,-1661.293795895707) " id="svg_30"/>
   <g stroke="null" transform="matrix(0.6380167879696883,0,0,0.6380112069118001,-1665.911466169558,-1661.293795895707) " id="svg_31"/>
   <g stroke="null" transform="matrix(0.6380167879696883,0,0,0.6380112069118001,-1665.911466169558,-1661.293795895707) " id="svg_32"/>
   <g stroke="null" transform="matrix(0.6380167879696883,0,0,0.6380112069118001,-1665.911466169558,-1661.293795895707) " id="svg_33"/>
   <g stroke="null" transform="matrix(0.6380167879696883,0,0,0.6380112069118001,-1665.911466169558,-1661.293795895707) " id="svg_34"/>
  </g>
 </g>
</svg>