<svg width="256" height="256" xmlns="http://www.w3.org/2000/svg" preserveAspectRatio="xMidYMid"><title>background</title><path fill="none" d="M-1-1h582v402H-1z"/><g><title>Layer 1</title><path fill="#00bac7" d="M0 0h256v256H0V0z"/><path fill="#fff" d="M67.312 212.932l19.59-11.856c3.78 6.701 7.218 12.371 15.465 12.371 7.905 0 12.89-3.092 12.89-15.12v-81.798h24.057v82.138c0 24.917-14.606 36.259-35.916 36.259-19.245 0-30.416-9.967-36.087-21.996M152.381 210.354l19.588-11.341c5.157 8.421 11.859 14.607 23.715 14.607 9.969 0 16.325-4.984 16.325-11.858 0-8.248-6.53-11.17-17.528-15.98l-6.013-2.58c-17.357-7.387-28.87-16.667-28.87-36.257 0-18.044 13.747-31.792 35.228-31.792 15.294 0 26.292 5.328 34.196 19.247L210.29 146.43c-4.125-7.389-8.591-10.31-15.465-10.31-7.046 0-11.514 4.468-11.514 10.31 0 7.217 4.468 10.14 14.778 14.608l6.014 2.577c20.45 8.765 31.963 17.7 31.963 37.804 0 21.654-17.012 33.51-39.867 33.51-22.339 0-36.774-10.654-43.819-24.574"/><g stroke="null"><path fill="#005461" d="M2811.066 2603.863c-110.275 0-199.988 89.72-199.988 200 0 54.818 22.178 104.542 58.02 140.705.199.229.359.484.576.7.219.223.475.376.705.577 36.156 35.838 85.877 58.018 140.687 58.018 110.289 0 200.008-89.72 200.008-200s-89.72-200-200.008-200zm0 26.23c43.2 0 82.74 15.883 113.172 42.065l-244.87 244.87c-26.177-30.433-42.06-69.968-42.06-113.165 0-95.816 77.95-173.77 173.758-173.77zm0 347.54c-43.193 0-82.725-15.88-113.15-42.06l244.867-244.872c26.18 30.432 42.06 69.963 42.06 113.162 0 95.816-77.955 173.77-173.777 173.77z" transform="matrix(.63802 0 0 .63801 -1665.911 -1661.294)"/></g></g></svg>